name C:\Users\u0101727\Documents\MyRepositories\upper-imu-dc\OpenSim\subject0\MA\ResultsMA\grid_4nodes_9dim\angles_23.mot
datacolumns 10
datarows 47
range 2300.01000000 2300.47000000
endheader 
time	clav_prot	clav_elev	scapula_abduction	scapula_elevation	scapula_upward_rot	scapula_winging	plane_elv	shoulder_elv	axial_rot	
       2300.01000000	        -50.00000000	        -10.00000000	         15.00000000	         -3.33333333	         60.00000000	        -20.00000000	        -90.00000000	         63.33333333	         90.00000000	
       2300.02000000	        -38.33333333	        -10.00000000	         15.00000000	         -3.33333333	         60.00000000	        -20.00000000	        -90.00000000	         63.33333333	         90.00000000	
       2300.03000000	        -26.66666667	        -10.00000000	         15.00000000	         -3.33333333	         60.00000000	        -20.00000000	        -90.00000000	         63.33333333	         90.00000000	
       2300.04000000	        -15.00000000	        -10.00000000	         15.00000000	         -3.33333333	         60.00000000	        -20.00000000	        -90.00000000	         63.33333333	         90.00000000	
       2300.05000000	        -50.00000000	          0.00000000	         15.00000000	         -3.33333333	         60.00000000	        -20.00000000	        -90.00000000	         63.33333333	         90.00000000	
       2300.06000000	        -38.33333333	          0.00000000	         15.00000000	         -3.33333333	         60.00000000	        -20.00000000	        -90.00000000	         63.33333333	         90.00000000	
       2300.07000000	        -26.66666667	          0.00000000	         15.00000000	         -3.33333333	         60.00000000	        -20.00000000	        -90.00000000	         63.33333333	         90.00000000	
       2300.08000000	        -15.00000000	          0.00000000	         15.00000000	         -3.33333333	         60.00000000	        -20.00000000	        -90.00000000	         63.33333333	         90.00000000	
       2300.09000000	        -50.00000000	         10.00000000	         15.00000000	         -3.33333333	         60.00000000	        -20.00000000	        -90.00000000	         63.33333333	         90.00000000	
       2300.10000000	        -38.33333333	         10.00000000	         15.00000000	         -3.33333333	         60.00000000	        -20.00000000	        -90.00000000	         63.33333333	         90.00000000	
       2300.11000000	        -26.66666667	         10.00000000	         15.00000000	         -3.33333333	         60.00000000	        -20.00000000	        -90.00000000	         63.33333333	         90.00000000	
       2300.12000000	        -15.00000000	         10.00000000	         15.00000000	         -3.33333333	         60.00000000	        -20.00000000	        -90.00000000	         63.33333333	         90.00000000	
       2300.13000000	        -50.00000000	         20.00000000	         15.00000000	         -3.33333333	         60.00000000	        -20.00000000	        -90.00000000	         63.33333333	         90.00000000	
       2300.14000000	        -38.33333333	         20.00000000	         15.00000000	         -3.33333333	         60.00000000	        -20.00000000	        -90.00000000	         63.33333333	         90.00000000	
       2300.15000000	        -26.66666667	         20.00000000	         15.00000000	         -3.33333333	         60.00000000	        -20.00000000	        -90.00000000	         63.33333333	         90.00000000	
       2300.16000000	        -15.00000000	         20.00000000	         15.00000000	         -3.33333333	         60.00000000	        -20.00000000	        -90.00000000	         63.33333333	         90.00000000	
       2300.17000000	        -50.00000000	        -10.00000000	        -40.00000000	          3.33333333	         60.00000000	        -20.00000000	        -90.00000000	         63.33333333	         90.00000000	
       2300.18000000	        -38.33333333	        -10.00000000	        -40.00000000	          3.33333333	         60.00000000	        -20.00000000	        -90.00000000	         63.33333333	         90.00000000	
       2300.19000000	        -26.66666667	        -10.00000000	        -40.00000000	          3.33333333	         60.00000000	        -20.00000000	        -90.00000000	         63.33333333	         90.00000000	
       2300.20000000	        -15.00000000	        -10.00000000	        -40.00000000	          3.33333333	         60.00000000	        -20.00000000	        -90.00000000	         63.33333333	         90.00000000	
       2300.21000000	        -50.00000000	          0.00000000	        -40.00000000	          3.33333333	         60.00000000	        -20.00000000	        -90.00000000	         63.33333333	         90.00000000	
       2300.22000000	        -38.33333333	          0.00000000	        -40.00000000	          3.33333333	         60.00000000	        -20.00000000	        -90.00000000	         63.33333333	         90.00000000	
       2300.23000000	        -26.66666667	          0.00000000	        -40.00000000	          3.33333333	         60.00000000	        -20.00000000	        -90.00000000	         63.33333333	         90.00000000	
       2300.24000000	        -15.00000000	          0.00000000	        -40.00000000	          3.33333333	         60.00000000	        -20.00000000	        -90.00000000	         63.33333333	         90.00000000	
       2300.25000000	        -50.00000000	         10.00000000	        -40.00000000	          3.33333333	         60.00000000	        -20.00000000	        -90.00000000	         63.33333333	         90.00000000	
       2300.26000000	        -38.33333333	         10.00000000	        -40.00000000	          3.33333333	         60.00000000	        -20.00000000	        -90.00000000	         63.33333333	         90.00000000	
       2300.27000000	        -26.66666667	         10.00000000	        -40.00000000	          3.33333333	         60.00000000	        -20.00000000	        -90.00000000	         63.33333333	         90.00000000	
       2300.28000000	        -15.00000000	         10.00000000	        -40.00000000	          3.33333333	         60.00000000	        -20.00000000	        -90.00000000	         63.33333333	         90.00000000	
       2300.29000000	        -50.00000000	         20.00000000	        -40.00000000	          3.33333333	         60.00000000	        -20.00000000	        -90.00000000	         63.33333333	         90.00000000	
       2300.30000000	        -38.33333333	         20.00000000	        -40.00000000	          3.33333333	         60.00000000	        -20.00000000	        -90.00000000	         63.33333333	         90.00000000	
       2300.31000000	        -26.66666667	         20.00000000	        -40.00000000	          3.33333333	         60.00000000	        -20.00000000	        -90.00000000	         63.33333333	         90.00000000	
       2300.32000000	        -15.00000000	         20.00000000	        -40.00000000	          3.33333333	         60.00000000	        -20.00000000	        -90.00000000	         63.33333333	         90.00000000	
       2300.33000000	        -50.00000000	        -10.00000000	        -21.66666667	          3.33333333	         60.00000000	        -20.00000000	        -90.00000000	         63.33333333	         90.00000000	
       2300.34000000	        -38.33333333	        -10.00000000	        -21.66666667	          3.33333333	         60.00000000	        -20.00000000	        -90.00000000	         63.33333333	         90.00000000	
       2300.35000000	        -26.66666667	        -10.00000000	        -21.66666667	          3.33333333	         60.00000000	        -20.00000000	        -90.00000000	         63.33333333	         90.00000000	
       2300.36000000	        -15.00000000	        -10.00000000	        -21.66666667	          3.33333333	         60.00000000	        -20.00000000	        -90.00000000	         63.33333333	         90.00000000	
       2300.37000000	        -50.00000000	          0.00000000	        -21.66666667	          3.33333333	         60.00000000	        -20.00000000	        -90.00000000	         63.33333333	         90.00000000	
       2300.38000000	        -38.33333333	          0.00000000	        -21.66666667	          3.33333333	         60.00000000	        -20.00000000	        -90.00000000	         63.33333333	         90.00000000	
       2300.39000000	        -26.66666667	          0.00000000	        -21.66666667	          3.33333333	         60.00000000	        -20.00000000	        -90.00000000	         63.33333333	         90.00000000	
       2300.40000000	        -15.00000000	          0.00000000	        -21.66666667	          3.33333333	         60.00000000	        -20.00000000	        -90.00000000	         63.33333333	         90.00000000	
       2300.41000000	        -50.00000000	         10.00000000	        -21.66666667	          3.33333333	         60.00000000	        -20.00000000	        -90.00000000	         63.33333333	         90.00000000	
       2300.42000000	        -38.33333333	         10.00000000	        -21.66666667	          3.33333333	         60.00000000	        -20.00000000	        -90.00000000	         63.33333333	         90.00000000	
       2300.43000000	        -26.66666667	         10.00000000	        -21.66666667	          3.33333333	         60.00000000	        -20.00000000	        -90.00000000	         63.33333333	         90.00000000	
       2300.44000000	        -15.00000000	         10.00000000	        -21.66666667	          3.33333333	         60.00000000	        -20.00000000	        -90.00000000	         63.33333333	         90.00000000	
       2300.45000000	        -50.00000000	         20.00000000	        -21.66666667	          3.33333333	         60.00000000	        -20.00000000	        -90.00000000	         63.33333333	         90.00000000	
       2300.46000000	        -38.33333333	         20.00000000	        -21.66666667	          3.33333333	         60.00000000	        -20.00000000	        -90.00000000	         63.33333333	         90.00000000	
       2300.47000000	        -26.66666667	         20.00000000	        -21.66666667	          3.33333333	         60.00000000	        -20.00000000	        -90.00000000	         63.33333333	         90.00000000	
